<svg width="24" height="25" viewBox="0 0 24 25" fill="none" xmlns="http://www.w3.org/2000/svg">
<path d="M17.0511 20.5886C16.0711 21.5386 15.0011 21.3886 13.9711 20.9386C12.8811 20.4786 11.8811 20.4586 10.7311 20.9386C9.29114 21.5586 8.53114 21.3786 7.67114 20.5886C2.79114 15.5586 3.51114 7.89859 9.05114 7.61859C10.4011 7.68859 11.3411 8.35859 12.1311 8.41859C13.3111 8.17859 14.4411 7.48859 15.7011 7.57859C17.2111 7.69859 18.3511 8.29859 19.1011 9.37859C15.9811 11.2486 16.7211 15.3586 19.5811 16.5086C19.0111 18.0086 18.2711 19.4986 17.0411 20.5986L17.0511 20.5886ZM12.0311 7.55859C11.8811 5.32859 13.6911 3.48859 15.7711 3.30859C16.0611 5.88859 13.4311 7.80859 12.0311 7.55859Z" fill="#111111"/>
</svg>
